<svg xmlns="http://www.w3.org/2000/svg" xmlns:xlink="http://www.w3.org/1999/xlink" width="800" zoomAndPan="magnify" viewBox="0 0 600 449.999984" height="600" preserveAspectRatio="xMidYMid meet" version="1.0"><path fill="#ffffff" d="M 269.8125 268.125 L 330.1875 268.125 L 330.1875 256.875 L 269.8125 256.875 Z M 269.8125 236.25 L 330.1875 236.25 L 330.1875 225 L 269.8125 225 Z M 251.25 300 C 248.25 300 245.625 298.875 243.375 296.625 C 241.125 294.375 240 291.75 240 288.75 L 240 161.25 C 240 158.25 241.125 155.625 243.375 153.375 C 245.625 151.125 248.25 150 251.25 150 L 318.9375 150 L 360 191.0625 L 360 288.75 C 360 291.75 358.875 294.375 356.625 296.625 C 354.375 298.875 351.75 300 348.75 300 Z M 313.3125 196.125 L 313.3125 161.25 L 251.25 161.25 L 251.25 288.75 L 348.75 288.75 L 348.75 196.125 Z M 251.25 161.25 L 251.25 196.125 L 251.25 161.25 L 251.25 288.75 Z M 251.25 161.25 " fill-opacity="1" fill-rule="nonzero"/></svg>