<svg xmlns="http://www.w3.org/2000/svg" xmlns:xlink="http://www.w3.org/1999/xlink" width="800" zoomAndPan="magnify" viewBox="0 0 600 449.999984" height="600" preserveAspectRatio="xMidYMid meet" version="1.0"><path fill="#ffffff" d="M 294.347656 238.125 C 299.617188 238.125 304.0625 236.320312 307.6875 232.714844 C 311.3125 229.109375 313.125 224.671875 313.125 219.402344 C 313.125 214.132812 311.320312 209.6875 307.714844 206.0625 C 304.109375 202.4375 299.671875 200.625 294.402344 200.625 C 289.132812 200.625 284.6875 202.429688 281.0625 206.035156 C 277.4375 209.640625 275.625 214.078125 275.625 219.347656 C 275.625 224.613281 277.429688 229.0625 281.035156 232.6875 C 284.640625 236.3125 289.078125 238.125 294.347656 238.125 Z M 330.5625 263.625 L 311.0625 244.125 C 308.3125 245.875 305.53125 247.1875 302.71875 248.0625 C 299.90625 248.9375 297.152344 249.375 294.460938 249.375 C 286.152344 249.375 279.0625 246.4375 273.1875 240.5625 C 267.3125 234.6875 264.375 227.625 264.375 219.375 C 264.375 211.125 267.3125 204.0625 273.1875 198.1875 C 279.0625 192.3125 286.125 189.375 294.375 189.375 C 302.625 189.375 309.6875 192.3125 315.5625 198.1875 C 321.4375 204.0625 324.375 211.152344 324.375 219.460938 C 324.375 222.152344 323.90625 224.90625 322.96875 227.71875 C 322.03125 230.53125 320.6875 233.3125 318.9375 236.0625 L 338.625 255.75 Z M 243.75 292.5 C 240.75 292.5 238.125 291.375 235.875 289.125 C 233.625 286.875 232.5 284.25 232.5 281.25 L 232.5 249 L 243.75 249 L 243.75 281.25 L 276 281.25 L 276 292.5 Z M 324 292.5 L 324 281.25 L 356.25 281.25 L 356.25 249 L 367.5 249 L 367.5 281.25 C 367.5 284.25 366.375 286.875 364.125 289.125 C 361.875 291.375 359.25 292.5 356.25 292.5 Z M 232.5 201 L 232.5 168.75 C 232.5 165.75 233.625 163.125 235.875 160.875 C 238.125 158.625 240.75 157.5 243.75 157.5 L 276 157.5 L 276 168.75 L 243.75 168.75 L 243.75 201 Z M 356.25 201 L 356.25 168.75 L 324 168.75 L 324 157.5 L 356.25 157.5 C 359.25 157.5 361.875 158.625 364.125 160.875 C 366.375 163.125 367.5 165.75 367.5 168.75 L 367.5 201 Z M 356.25 201 " fill-opacity="1" fill-rule="nonzero"/></svg>