<svg xmlns="http://www.w3.org/2000/svg" xmlns:xlink="http://www.w3.org/1999/xlink" width="800" zoomAndPan="magnify" viewBox="0 0 600 449.999984" height="600" preserveAspectRatio="xMidYMid meet" version="1.0"><path fill="#ffffff" d="M 294.375 232.875 L 294.375 156.75 L 305.625 156.75 L 305.625 232.875 Z M 300 292.875 C 290.75 292.875 282.03125 291.09375 273.84375 287.53125 C 265.65625 283.96875 258.5 279.125 252.375 273 C 246.25 266.875 241.40625 259.71875 237.84375 251.53125 C 234.28125 243.34375 232.5 234.625 232.5 225.375 C 232.5 215.375 234.625 206.03125 238.875 197.34375 C 243.125 188.65625 249.125 180.9375 256.875 174.1875 L 264.75 182.0625 C 258.125 187.4375 252.96875 193.84375 249.28125 201.28125 C 245.59375 208.71875 243.75 216.75 243.75 225.371094 C 243.75 241 249.21875 254.28125 260.15625 265.21875 C 271.09375 276.15625 284.375 281.625 300 281.625 C 315.667969 281.625 328.960938 276.15625 339.878906 265.21875 C 350.792969 254.28125 356.25 241 356.25 225.371094 C 356.25 216.75 354.40625 208.65625 350.71875 201.09375 C 347.03125 193.53125 342 187.1875 335.625 182.0625 L 343.6875 174.1875 C 351.1875 180.5625 357.03125 188.1875 361.21875 197.0625 C 365.40625 205.9375 367.5 215.375 367.5 225.375 C 367.5 234.625 365.71875 243.34375 362.15625 251.53125 C 358.59375 259.71875 353.78125 266.875 347.71875 273 C 341.65625 279.125 334.53125 283.96875 326.34375 287.53125 C 318.15625 291.09375 309.375 292.875 300 292.875 Z M 300 292.875 " fill-opacity="1" fill-rule="nonzero"/></svg>