<svg xmlns="http://www.w3.org/2000/svg" xmlns:xlink="http://www.w3.org/1999/xlink" width="800" zoomAndPan="magnify" viewBox="0 0 600 449.999984" height="600" preserveAspectRatio="xMidYMid meet" version="1.0"><path fill="#ffffff" d="M 359.25 292.3125 L 309.9375 243 C 306.1875 246.25 301.816406 248.78125 296.820312 250.59375 C 291.824219 252.40625 286.511719 253.3125 280.875 253.3125 C 267.355469 253.3125 255.914062 248.625 246.546875 239.25 C 237.183594 229.875 232.5 218.5625 232.5 205.3125 C 232.5 192.0625 237.1875 180.75 246.5625 171.375 C 255.9375 162 267.28125 157.3125 280.59375 157.3125 C 293.90625 157.3125 305.21875 162 314.53125 171.375 C 323.84375 180.75 328.5 192.070312 328.5 205.339844 C 328.5 210.695312 327.625 215.875 325.875 220.875 C 324.125 225.875 321.5 230.5625 318 234.9375 L 367.5 284.0625 Z M 280.6875 242.0625 C 290.84375 242.0625 299.476562 238.46875 306.585938 231.28125 C 313.695312 224.09375 317.25 215.4375 317.25 205.3125 C 317.25 195.1875 313.695312 186.53125 306.585938 179.34375 C 299.476562 172.15625 290.84375 168.5625 280.6875 168.5625 C 270.425781 168.5625 261.707031 172.15625 254.523438 179.34375 C 247.339844 186.53125 243.75 195.1875 243.75 205.3125 C 243.75 215.4375 247.339844 224.09375 254.523438 231.28125 C 261.707031 238.46875 270.425781 242.0625 280.6875 242.0625 Z M 280.6875 242.0625 " fill-opacity="1" fill-rule="nonzero"/></svg>