<svg xmlns="http://www.w3.org/2000/svg" xmlns:xlink="http://www.w3.org/1999/xlink" width="800" zoomAndPan="magnify" viewBox="0 0 600 449.999984" height="600" preserveAspectRatio="xMidYMid meet" version="1.0"><path fill="#ffffff" d="M 367.5 225 L 335.8125 269.8125 C 334.1875 272.0625 332.25 273.90625 330 275.34375 C 327.75 276.78125 325.25 277.5 322.5 277.5 L 243.75 277.5 C 240.65625 277.5 238.007812 276.398438 235.804688 274.195312 C 233.601562 271.992188 232.5 269.34375 232.5 266.25 L 232.5 183.75 C 232.5 180.65625 233.601562 178.007812 235.804688 175.804688 C 238.007812 173.601562 240.65625 172.5 243.75 172.5 L 322.5 172.5 C 325.25 172.5 327.75 173.21875 330 174.65625 C 332.25 176.09375 334.1875 177.9375 335.8125 180.1875 Z M 353.4375 225 L 324.5625 183.75 L 243.75 183.75 L 243.75 266.25 L 324.5625 266.25 Z M 243.75 225 L 243.75 266.25 L 243.75 183.75 Z M 243.75 225 " fill-opacity="1" fill-rule="nonzero"/></svg>