<svg xmlns="http://www.w3.org/2000/svg" xmlns:xlink="http://www.w3.org/1999/xlink" width="800" zoomAndPan="magnify" viewBox="0 0 600 449.999984" height="600" preserveAspectRatio="xMidYMid meet" version="1.0"><path fill="#ffffff" d="M 346.875 240 L 346.875 215.625 L 322.5 215.625 L 322.5 204.375 L 346.875 204.375 L 346.875 180 L 358.125 180 L 358.125 204.375 L 382.5 204.375 L 382.5 215.625 L 358.125 215.625 L 358.125 240 Z M 277.5 224.8125 C 269.25 224.8125 262.5 222.1875 257.25 216.9375 C 252 211.6875 249.375 204.9375 249.375 196.6875 C 249.375 188.4375 252 181.6875 257.25 176.4375 C 262.5 171.1875 269.25 168.5625 277.5 168.5625 C 285.75 168.5625 292.5 171.1875 297.75 176.4375 C 303 181.6875 305.625 188.4375 305.625 196.6875 C 305.625 204.9375 303 211.6875 297.75 216.9375 C 292.5 222.1875 285.75 224.8125 277.5 224.8125 Z M 217.5 285 L 217.5 267.375 C 217.5 263 218.59375 259.03125 220.78125 255.46875 C 222.96875 251.90625 226.125 249.25 230.25 247.5 C 239.625 243.375 247.957031 240.46875 255.25 238.78125 C 262.542969 237.09375 269.949219 236.25 277.46875 236.25 C 284.988281 236.25 292.375 237.09375 299.625 238.78125 C 306.875 240.46875 315.1875 243.375 324.5625 247.5 C 328.6875 249.375 331.875 252.0625 334.125 255.5625 C 336.375 259.0625 337.5 263 337.5 267.375 L 337.5 285 Z M 228.75 273.75 L 326.25 273.75 L 326.25 267.375 C 326.25 265.375 325.6875 263.46875 324.5625 261.65625 C 323.4375 259.84375 321.9375 258.5 320.0625 257.625 C 311.1875 253.5 303.6875 250.78125 297.5625 249.46875 C 291.4375 248.15625 284.75 247.5 277.5 247.5 C 270.25 247.5 263.53125 248.15625 257.34375 249.46875 C 251.15625 250.78125 243.625 253.5 234.75 257.625 C 232.875 258.5 231.40625 259.84375 230.34375 261.65625 C 229.28125 263.46875 228.75 265.375 228.75 267.375 Z M 277.5 213.5625 C 282.375 213.5625 286.40625 211.96875 289.59375 208.78125 C 292.78125 205.59375 294.375 201.5625 294.375 196.6875 C 294.375 191.8125 292.78125 187.78125 289.59375 184.59375 C 286.40625 181.40625 282.375 179.8125 277.5 179.8125 C 272.625 179.8125 268.59375 181.40625 265.40625 184.59375 C 262.21875 187.78125 260.625 191.8125 260.625 196.6875 C 260.625 201.5625 262.21875 205.59375 265.40625 208.78125 C 268.59375 211.96875 272.625 213.5625 277.5 213.5625 Z M 277.5 196.6875 Z M 277.5 273.75 Z M 277.5 273.75 " fill-opacity="1" fill-rule="nonzero"/></svg>