<svg xmlns="http://www.w3.org/2000/svg" xmlns:xlink="http://www.w3.org/1999/xlink" width="800" zoomAndPan="magnify" viewBox="0 0 600 449.999984" height="600" preserveAspectRatio="xMidYMid meet" version="1.0"><path fill="#ffffff" d="M 217.5 292.5 L 217.5 258.375 L 228.75 258.375 L 228.75 281.25 L 251.625 281.25 L 251.625 292.5 Z M 348.1875 292.5 L 348.1875 281.25 L 371.0625 281.25 L 371.0625 258.375 L 382.3125 258.375 L 382.3125 292.5 Z M 238.6875 271.6875 L 238.6875 178.125 L 253.6875 178.125 L 253.6875 271.6875 Z M 261.375 271.6875 L 261.375 178.125 L 269.25 178.125 L 269.25 271.6875 Z M 284.25 271.6875 L 284.25 178.125 L 299.8125 178.125 L 299.8125 271.6875 Z M 307.6875 271.6875 L 307.6875 178.125 L 330.375 178.125 L 330.375 271.6875 Z M 338.25 271.6875 L 338.25 178.125 L 346.125 178.125 L 346.125 271.6875 Z M 353.8125 271.6875 L 353.8125 178.125 L 360.9375 178.125 L 360.9375 271.6875 Z M 217.5 191.625 L 217.5 157.5 L 251.625 157.5 L 251.625 168.75 L 228.75 168.75 L 228.75 191.625 Z M 371.0625 191.625 L 371.0625 168.75 L 348.1875 168.75 L 348.1875 157.5 L 382.3125 157.5 L 382.3125 191.625 Z M 371.0625 191.625 " fill-opacity="1" fill-rule="nonzero"/></svg>